<mxfile host="app.diagrams.net" modified="2020-09-01T00:55:45.709Z" agent="5.0 (Macintosh; Intel Mac OS X 10_15_3) AppleWebKit/537.36 (KHTML, like Gecko) Chrome/84.0.4147.135 Safari/537.36" etag="91gwKrbh3PGHutmdYi-X" version="13.6.5" type="github">
  <diagram id="k-ebSY6VWgsAUWqv_ngs" name="Page-1">
    <mxGraphModel dx="1298" dy="736" grid="1" gridSize="10" guides="1" tooltips="1" connect="1" arrows="1" fold="1" page="1" pageScale="1" pageWidth="827" pageHeight="1500" math="0" shadow="0">
      <root>
        <mxCell id="0" />
        <mxCell id="1" parent="0" />
        <mxCell id="Hxssb3WSL0QEJmdprTq4-9" style="rounded=0;orthogonalLoop=1;jettySize=auto;html=1;entryX=0.5;entryY=0;entryDx=0;entryDy=0;fontSize=19;" edge="1" parent="1" source="Hxssb3WSL0QEJmdprTq4-1" target="Hxssb3WSL0QEJmdprTq4-4">
          <mxGeometry relative="1" as="geometry" />
        </mxCell>
        <mxCell id="Hxssb3WSL0QEJmdprTq4-10" style="edgeStyle=none;rounded=0;orthogonalLoop=1;jettySize=auto;html=1;entryX=0.5;entryY=0;entryDx=0;entryDy=0;fontSize=19;" edge="1" parent="1" source="Hxssb3WSL0QEJmdprTq4-1" target="Hxssb3WSL0QEJmdprTq4-5">
          <mxGeometry relative="1" as="geometry" />
        </mxCell>
        <mxCell id="Hxssb3WSL0QEJmdprTq4-11" style="edgeStyle=none;rounded=0;orthogonalLoop=1;jettySize=auto;html=1;entryX=0.5;entryY=0;entryDx=0;entryDy=0;fontSize=19;" edge="1" parent="1" source="Hxssb3WSL0QEJmdprTq4-1" target="Hxssb3WSL0QEJmdprTq4-7">
          <mxGeometry relative="1" as="geometry" />
        </mxCell>
        <mxCell id="Hxssb3WSL0QEJmdprTq4-1" value="Commander 指挥官" style="shape=umlActor;verticalLabelPosition=bottom;verticalAlign=top;html=1;outlineConnect=0;" vertex="1" parent="1">
          <mxGeometry x="370" y="170" width="76" height="100" as="geometry" />
        </mxCell>
        <mxCell id="Hxssb3WSL0QEJmdprTq4-4" value="Track 轨道1" style="rounded=0;whiteSpace=wrap;html=1;" vertex="1" parent="1">
          <mxGeometry x="180" y="360" width="120" height="60" as="geometry" />
        </mxCell>
        <mxCell id="Hxssb3WSL0QEJmdprTq4-5" value="Track 轨道2" style="rounded=0;whiteSpace=wrap;html=1;" vertex="1" parent="1">
          <mxGeometry x="320" y="360" width="120" height="60" as="geometry" />
        </mxCell>
        <mxCell id="Hxssb3WSL0QEJmdprTq4-7" value="Track 轨道 N" style="rounded=0;whiteSpace=wrap;html=1;" vertex="1" parent="1">
          <mxGeometry x="560" y="360" width="120" height="60" as="geometry" />
        </mxCell>
        <mxCell id="Hxssb3WSL0QEJmdprTq4-8" value="。。。" style="text;html=1;align=center;verticalAlign=middle;resizable=0;points=[];autosize=1;fontSize=19;" vertex="1" parent="1">
          <mxGeometry x="470" y="375" width="70" height="30" as="geometry" />
        </mxCell>
      </root>
    </mxGraphModel>
  </diagram>
</mxfile>
